<?xml version="1.0" encoding="UTF-8"?><svg xmlns="http://www.w3.org/2000/svg" xmlns:xlink="http://www.w3.org/1999/xlink" contentScriptType="text/ecmascript" fill="#000000" width="366.3" zoomAndPan="magnify" contentStyleType="text/css" viewBox="0.0 0.0 366.3 497.3" height="497.3" preserveAspectRatio="xMidYMid meet" version="1"><defs><clipPath id="a"><path d="M 0 0 L 366.339844 0 L 366.339844 497.300781 L 0 497.300781 Z M 0 0"/></clipPath><clipPath id="b"><path d="M 40 78 L 219 78 L 219 497.300781 L 40 497.300781 Z M 40 78"/></clipPath><clipPath id="c"><path d="M 162 244 L 366.339844 244 L 366.339844 476 L 162 476 Z M 162 244"/></clipPath></defs><g><g clip-path="url(#a)"><path fill="#184058" d="M 284.300781 244.800781 C 284 252.132812 283 261.082031 282 271.648438 L 282 244.101562 C 283 244.332031 283.566406 244.566406 284.300781 244.800781 Z M 365.851562 445.101562 C 365.21875 442.464844 364.183594 440.515625 362.75 439.25 C 362.480469 437.148438 362.300781 435.582031 362.199219 434.550781 C 363.199219 432.316406 364.03125 428.332031 364.699219 422.601562 C 365.566406 414.398438 365.617188 404.949219 364.851562 394.25 C 364.148438 383.550781 363 373.882812 361.398438 365.25 C 360.867188 361.917969 359.800781 358.734375 358.199219 355.699219 C 357.164062 353.832031 356.148438 351.882812 355.148438 349.851562 C 351.683594 343.015625 350.691406 336.148438 351.824219 329.25 C 353.023438 322.25 354 314.132812 354 304.898438 C 354 303.964844 354 303.03125 354 302.101562 C 354 300.5 354.609375 298.800781 354.875 297 C 355.207031 294.332031 354.921875 291.734375 354.1875 289.199219 C 353.921875 284.933594 353.710938 280.316406 353.644531 275.351562 C 353.242188 254.015625 352.390625 236.351562 351.121094 222.351562 C 352.285156 217.984375 352.925781 213.015625 353.0625 207.449219 C 353.425781 191.25 349.855469 182.734375 342.355469 181.898438 C 341.355469 181.800781 340.402344 181.75 339.503906 181.75 C 336.96875 180.550781 334.25 179.800781 331.351562 179.5 C 331.550781 179.398438 331.75 179.332031 331.949219 179.300781 C 333.417969 178.867188 335.414062 177.382812 337.949219 174.851562 C 340.480469 172.351562 342.015625 168.601562 342.550781 163.601562 C 343.085938 158.566406 341.664062 153.816406 338.300781 149.351562 C 334.867188 144.78125 330.199219 142.132812 324.300781 141.398438 C 318.335938 140.601562 313.21875 141.816406 308.949219 145.050781 C 304.683594 148.25 303.300781 151.199219 304.800781 153.898438 C 304.898438 155.132812 305.265625 156.082031 305.898438 156.75 C 303.566406 159.648438 302.398438 163.066406 302.398438 167 C 302.398438 171.632812 304.242188 175.582031 307.574219 178.851562 C 308.839844 180.148438 310 181.199219 312 182 L 312 182.800781 C 301 186.832031 294.640625 191.75 291.476562 197.550781 C 288.140625 203.515625 286.171875 209.234375 285.738281 214.699219 C 285.535156 216.964844 285.269531 218.867188 285.167969 220.398438 C 284.167969 220.300781 283 220.183594 282 220.050781 L 282 198.851562 L 300.074219 27.648438 L 294.160156 27.050781 L 294.40625 22.5 L 282 21.648438 L 282 13.300781 L 159.5 13.300781 L 37.398438 0.226562 L 36.949219 4.613281 L 30.949219 4.332031 L 30.351562 13.300781 L 18 13.300781 L 18 184.449219 L 0 355.601562 L 6.25 356.25 L 5.949219 360.699219 L 18 361.550781 L 18 370.300781 L 55 370.300781 L 55 487.648438 C 55 490.351562 55.800781 492.601562 57.601562 494.398438 C 59.398438 496.332031 61.550781 497.300781 64.25 497.300781 L 209.398438 497.300781 C 212.066406 497.300781 214.300781 496.332031 216.101562 494.398438 C 218.03125 492.601562 219 490.351562 219 487.648438 L 219 378.675781 L 262.75 383.25 L 263.25 378.699219 L 269.5 379.050781 L 270.101562 370.300781 L 282 370.300781 L 282 311.398438 L 282.875 310.648438 C 283.507812 311.550781 284.171875 312.417969 285.035156 313.25 C 284.9375 315.75 285 318.550781 285 321.648438 L 285 376 C 285 376.765625 285.425781 379.214844 285.425781 383.351562 C 285.390625 387.382812 285.554688 395.582031 285.785156 407.949219 C 285.988281 420.25 286.917969 434.898438 288.519531 451.898438 C 289.71875 452.433594 290.917969 452.898438 292.085938 453.300781 C 292.050781 453.667969 292.042969 454.066406 292.042969 454.5 C 288.542969 453.464844 284.964844 452.714844 281.296875 452.25 C 279.261719 452.117188 277.265625 452.066406 275.300781 452.101562 C 271.800781 453.933594 270.347656 456.648438 270.949219 460.25 C 271.050781 460.683594 271.25 461.101562 271.550781 461.5 C 273.085938 463.5 275.015625 465.167969 277.351562 466.5 C 279.480469 467.699219 281.617188 468.882812 283.75 470.050781 C 288.480469 472.648438 293.449219 474.449219 298.648438 475.449219 C 301.351562 475.949219 303.46875 475.101562 305 472.898438 C 306.835938 470.367188 307.335938 467.617188 306.5 464.648438 C 305.898438 462.550781 304.851562 460.832031 303.351562 459.5 C 303.515625 459.199219 303.648438 458.898438 303.75 458.601562 C 303.949219 456.601562 304.101562 455.167969 304.199219 454.300781 C 305.664062 454.300781 306.730469 453.648438 307.398438 452.351562 C 309.265625 448.917969 310.585938 445.28125 311.351562 441.449219 C 313.480469 430.351562 315.914062 419.234375 318.648438 408.101562 C 321.382812 397.199219 320.851562 386.5 317.050781 376 C 315.585938 371.667969 315.300781 367.28125 316.199219 362.851562 C 317.765625 354.816406 319.96875 346.949219 322.800781 339.25 C 325 345.117188 326.980469 351.25 328.75 357.648438 C 331.351562 366.882812 333.664062 375.148438 335.699219 382.449219 C 337.699219 389.816406 339.132812 395.351562 340 399.050781 C 340.800781 402.78125 341.851562 406.882812 343.148438 411.351562 C 344.449219 415.714844 345.53125 421.332031 346.398438 428.199219 C 346.867188 431.464844 347.601562 433.933594 348.601562 435.601562 C 343.433594 434.832031 338.335938 433.566406 333.300781 431.800781 C 330.765625 430.898438 328.566406 431.332031 326.699219 433.101562 C 325.835938 433.898438 325.480469 434.851562 325.648438 435.949219 C 326.050781 438.714844 327.085938 441.316406 328.75 443.75 C 330.351562 445.617188 332.066406 447.367188 333.898438 449 C 336.230469 451.03125 340.449219 452.75 346.550781 454.148438 C 352.617188 455.417969 358.066406 455.832031 362.898438 455.398438 C 362.898438 455.332031 362.914062 455.332031 362.949219 455.398438 C 363.21875 455.132812 363.515625 454.867188 363.851562 454.601562 C 366.25 452.5 366.914062 449.332031 365.851562 445.101562"/></g><g><path fill="#ffffff" d="M 149.449219 333.101562 C 149.445312 333.082031 149.445312 333.066406 149.449219 333.050781 C 150.78125 327.28125 152.25 320.933594 153.851562 314 L 162.148438 314 C 162.183594 318.398438 162.75 322.816406 163.851562 327.25 C 164.324219 329.199219 164.789062 331.148438 165.25 333.101562 Z M 166.101562 281.050781 L 163.351562 281.050781 C 163.917969 279.449219 164.46875 277.832031 165 276.199219 C 165.398438 277.800781 165.765625 279.417969 166.101562 281.050781 Z M 122.351562 352.148438 L 173.949219 352.148438 L 142.949219 397.550781 Z M 196.75 318.75 C 196.789062 317.050781 196.820312 315.46875 196.851562 314 L 199.976562 314 Z M 156.398438 303.351562 C 157.398438 299.382812 158.5 295.5 159.699219 291.699219 L 166.351562 291.699219 C 166.117188 292.832031 165.800781 293.949219 165.398438 295.050781 C 164.398438 297.816406 163.648438 300.582031 163.148438 303.351562 Z M 197.199219 291.699219 L 215.699219 291.699219 C 214.523438 292.835938 213.4375 294.117188 212.449219 295.550781 L 207.175781 303.351562 L 196.898438 303.351562 C 196.898438 303.015625 196.898438 302.714844 196.898438 302.449219 C 196.898438 298.382812 197 295.949219 197.199219 295.148438 Z M 199.949219 398.148438 L 199.949219 478.199219 L 73.851562 478.199219 L 73.851562 359.851562 L 117.351562 455.101562 C 119.917969 460.367188 123.765625 464.214844 128.898438 466.648438 C 134.167969 469.117188 139.566406 469.566406 145.101562 468 C 150.734375 466.464844 155.21875 463.332031 158.550781 458.601562 Z M 77.949219 314.101562 L 45.199219 314.101562 L 45.199219 281.351562 L 77.949219 281.351562 Z M 80.398438 276.398438 L 42.699219 276.398438 C 42 276.398438 41.417969 276.632812 40.949219 277.101562 C 40.484375 277.566406 40.25 278.148438 40.25 278.851562 L 40.25 316.550781 C 40.25 317.25 40.484375 317.832031 40.949219 318.300781 C 41.417969 318.800781 42 319.050781 42.699219 319.050781 L 80.398438 319.050781 C 81.101562 319.050781 81.683594 318.800781 82.148438 318.300781 C 82.648438 317.832031 82.898438 317.25 82.898438 316.550781 L 82.898438 278.851562 C 82.898438 278.148438 82.648438 277.566406 82.148438 277.101562 C 81.683594 276.632812 81.101562 276.398438 80.398438 276.398438 Z M 57.800781 215.351562 L 71.199219 215.351562 L 63.148438 227.101562 Z M 45.199219 217.300781 L 56.5 242.050781 C 57.167969 243.417969 58.167969 244.417969 59.5 245.050781 C 60.867188 245.683594 62.265625 245.800781 63.699219 245.398438 C 65.167969 245 66.332031 244.183594 67.199219 242.949219 L 77.949219 227.25 L 77.949219 248.101562 L 45.199219 248.101562 Z M 55.25 210.398438 C 54.582031 209.632812 53.765625 209.066406 52.800781 208.699219 C 51.199219 208.101562 49.632812 208.167969 48.101562 208.898438 C 47.265625 209.265625 46.582031 209.765625 46.050781 210.398438 L 42.699219 210.398438 C 42 210.398438 41.417969 210.632812 40.949219 211.101562 C 40.484375 211.566406 40.25 212.148438 40.25 212.851562 L 40.25 250.550781 C 40.25 251.25 40.484375 251.832031 40.949219 252.300781 C 41.417969 252.800781 42 253.050781 42.699219 253.050781 L 80.398438 253.050781 C 81.101562 253.050781 81.683594 252.800781 82.148438 252.300781 C 82.648438 251.832031 82.898438 251.25 82.898438 250.550781 L 82.898438 219.949219 L 91.351562 207.5 C 92.28125 206.132812 92.601562 204.617188 92.300781 202.949219 C 91.96875 201.28125 91.101562 199.964844 89.699219 199 C 88.332031 198.03125 86.816406 197.714844 85.148438 198.050781 C 83.484375 198.351562 82.167969 199.199219 81.199219 200.601562 L 74.550781 210.398438 Z M 47.101562 149.398438 L 49.699219 171.550781 C 49.832031 173.050781 50.449219 174.316406 51.550781 175.351562 C 52.683594 176.351562 54 176.898438 55.5 177 C 57 177.066406 58.332031 176.648438 59.5 175.75 L 77.949219 161.550781 L 77.949219 182.148438 L 45.199219 182.148438 L 45.199219 149.398438 Z M 59.449219 149.398438 L 73.601562 149.398438 L 60.601562 159.398438 Z M 46.550781 144.449219 L 42.699219 144.449219 C 42 144.449219 41.417969 144.683594 40.949219 145.148438 C 40.484375 145.617188 40.25 146.199219 40.25 146.898438 L 40.25 184.601562 C 40.25 185.300781 40.484375 185.882812 40.949219 186.351562 C 41.417969 186.851562 42 187.101562 42.699219 187.101562 L 80.398438 187.101562 C 81.101562 187.101562 81.683594 186.851562 82.148438 186.351562 C 82.648438 185.882812 82.898438 185.300781 82.898438 184.601562 L 82.898438 157.699219 L 93.5 149.5 C 94.832031 148.464844 95.601562 147.101562 95.800781 145.398438 C 96.03125 143.699219 95.617188 142.183594 94.550781 140.851562 C 93.515625 139.515625 92.167969 138.75 90.5 138.550781 C 88.800781 138.351562 87.28125 138.765625 85.949219 139.800781 L 80 144.449219 L 58.898438 144.449219 L 58.699219 142.851562 C 58.53125 141.148438 57.78125 139.78125 56.449219 138.75 C 55.117188 137.683594 53.601562 137.25 51.898438 137.449219 C 50.234375 137.617188 48.867188 138.367188 47.800781 139.699219 C 46.765625 141 46.332031 142.515625 46.5 144.25 Z M 77.949219 95 L 77.949219 115.800781 L 45.199219 115.800781 L 45.199219 85.050781 L 56.5 109.800781 C 57.167969 111.167969 58.167969 112.167969 59.5 112.800781 C 60.867188 113.433594 62.265625 113.550781 63.699219 113.148438 C 65.167969 112.75 66.332031 111.933594 67.199219 110.699219 Z M 71.199219 83.050781 L 63.148438 94.851562 L 57.800781 83.050781 Z M 82.898438 87.699219 L 91.351562 75.25 C 92.28125 73.882812 92.601562 72.367188 92.300781 70.699219 C 91.96875 69.03125 91.101562 67.714844 89.699219 66.75 C 88.332031 65.78125 86.816406 65.464844 85.148438 65.800781 C 83.484375 66.101562 82.167969 66.949219 81.199219 68.351562 L 74.601562 78.101562 L 55.199219 78.101562 C 54.566406 77.367188 53.765625 76.816406 52.800781 76.449219 C 51.199219 75.851562 49.632812 75.914062 48.101562 76.648438 C 47.300781 76.984375 46.632812 77.464844 46.101562 78.101562 L 42.699219 78.101562 C 42 78.101562 41.417969 78.332031 40.949219 78.800781 C 40.484375 79.265625 40.25 79.851562 40.25 80.550781 L 40.25 118.25 C 40.25 118.949219 40.484375 119.53125 40.949219 120 C 41.417969 120.5 42 120.75 42.699219 120.75 L 80.398438 120.75 C 81.101562 120.75 81.683594 120.5 82.148438 120 C 82.648438 119.53125 82.898438 118.949219 82.898438 118.25 Z M 324.601562 182.949219 C 325.835938 183.082031 327.015625 183.332031 328.148438 183.699219 C 331.78125 184.933594 333.898438 186.898438 334.5 189.601562 C 335.132812 192.265625 334.085938 194.917969 331.351562 197.550781 C 328.585938 200.183594 324.933594 202.050781 320.398438 203.148438 C 315.898438 204.183594 311.835938 204.101562 308.199219 202.898438 C 304.53125 201.734375 302.367188 199.800781 301.699219 197.101562 C 301.132812 194.433594 302.230469 191.75 305 189.050781 C 306.835938 187.316406 309.050781 185.949219 311.648438 184.949219 L 311.648438 190.550781 C 311.648438 192.25 312.265625 193.683594 313.5 194.851562 C 314.699219 196.117188 316.164062 196.75 317.898438 196.75 C 319.566406 196.75 321.03125 196.117188 322.300781 194.851562 C 323.46875 193.683594 324.050781 192.25 324.050781 190.550781 L 324.050781 183.101562 C 324.21875 183.066406 324.398438 183.015625 324.601562 182.949219 Z M 270.101562 370.5 L 219 370.5 L 219 370.050781 L 251.550781 322.101562 C 255.117188 316.832031 256.335938 311 255.199219 304.601562 C 254.148438 299.410156 251.773438 295.109375 248.074219 291.699219 L 256.050781 291.699219 L 256.050781 281.050781 L 197.199219 281.050781 L 197.199219 247.601562 L 225.300781 247.601562 L 225.300781 236.949219 L 197.351562 236.949219 C 197.351562 235.515625 197.335938 234.183594 197.300781 232.949219 C 197.730469 232.183594 198.148438 231.433594 198.550781 230.699219 C 198.851562 231.300781 199.367188 231.816406 200.101562 232.25 C 201.398438 233.050781 202.898438 233.433594 204.601562 233.398438 C 206.265625 233.332031 207.664062 232.851562 208.800781 231.949219 C 210 231.117188 210.601562 230.101562 210.601562 228.898438 L 210.601562 227.351562 C 211.46875 226.984375 212.183594 226.433594 212.75 225.699219 L 223.25 225.699219 L 225.449219 226.25 C 227.015625 226.648438 228.515625 226.464844 229.949219 225.699219 L 238.699219 225.699219 L 239.351562 225.949219 C 239.316406 228.515625 241.015625 230.601562 244.449219 232.199219 C 248.316406 234 255.933594 236.53125 267.300781 239.800781 C 272.800781 241.367188 277.75 242.800781 282.148438 244.101562 L 282.148438 271.648438 C 281.851562 274.25 281.515625 276.949219 281.148438 279.75 C 280.71875 283.117188 280.398438 286.265625 280.199219 289.199219 C 280.101562 289.5 280.015625 289.816406 279.949219 290.148438 C 278.882812 292.78125 277.699219 295.398438 276.398438 298 C 276.300781 298.632812 276.265625 299.265625 276.300781 299.898438 L 269.449219 306.25 C 268.617188 307.050781 268.300781 308.167969 268.5 309.601562 C 268.730469 311.03125 269.433594 312.367188 270.601562 313.601562 C 271.765625 314.867188 273.050781 315.667969 274.449219 316 C 275.882812 316.367188 277.03125 316.148438 277.898438 315.351562 L 282.148438 311.398438 L 282.148438 370.5 Z M 171.398438 102.398438 C 170.933594 102.101562 170.550781 101.734375 170.25 101.300781 C 169.882812 100.800781 169.683594 100.199219 169.648438 99.5 L 178.148438 97.800781 C 177.984375 98.699219 177.683594 99.566406 177.25 100.398438 C 175.78125 103.234375 173.832031 103.898438 171.398438 102.398438 Z M 157.800781 109.800781 L 157.800781 115.699219 C 157.800781 117.367188 158.417969 118.800781 159.648438 120 C 160.851562 121.234375 162.316406 121.851562 164.050781 121.851562 C 165.75 121.851562 167.21875 121.234375 168.449219 120 C 169.648438 118.800781 170.25 117.367188 170.25 115.699219 L 170.25 107.949219 C 170.382812 107.882812 170.53125 107.832031 170.699219 107.800781 C 171.96875 107.933594 173.199219 108.183594 174.398438 108.550781 C 178.03125 109.78125 180.148438 111.734375 180.75 114.398438 C 180.851562 114.800781 180.917969 115.183594 180.949219 115.550781 C 181.050781 117.851562 179.933594 120.132812 177.601562 122.398438 C 174.832031 125.03125 171.183594 126.882812 166.648438 127.949219 C 162.148438 129.015625 158.082031 128.949219 154.449219 127.75 C 150.78125 126.550781 148.617188 124.617188 147.949219 121.949219 C 147.484375 119.816406 148.082031 117.683594 149.75 115.550781 C 150.183594 114.984375 150.683594 114.433594 151.25 113.898438 C 153.015625 112.199219 155.199219 110.832031 157.800781 109.800781 Z M 256.050781 55.199219 L 256.050781 44.550781 L 98.75 44.550781 L 98.75 55.199219 Z M 159.5 12.851562 L 282.148438 12.851562 L 282.148438 220.050781 C 272.25 218.75 259.75 215.398438 244.648438 210 C 244.050781 211.433594 243.5 212.765625 243 214 L 232.898438 210.199219 C 231.300781 209.601562 229.730469 209.648438 228.199219 210.351562 C 226.765625 211.015625 225.75 212.015625 225.148438 213.351562 L 217 211.351562 C 217.101562 210.683594 217.230469 209.984375 217.398438 209.25 C 215.601562 208.816406 213.867188 208.367188 212.199219 207.898438 C 210.765625 199.234375 209.351562 190.566406 207.949219 181.898438 L 225.300781 181.898438 L 225.300781 171.25 L 206.148438 171.25 C 205.515625 167.484375 204.882812 163.714844 204.25 159.949219 L 256.050781 159.949219 L 256.050781 149.300781 L 202.5 149.300781 C 201.867188 144.964844 201.367188 140.632812 201 136.300781 C 200.46875 130.101562 199.46875 124.015625 198 118.050781 C 197.664062 117.148438 197.335938 116.316406 197 115.550781 L 225.300781 115.550781 L 225.300781 104.898438 L 175.699219 104.898438 C 176.132812 104.53125 176.550781 104.148438 176.949219 103.75 C 179.75 100.949219 181.351562 97.632812 181.75 93.800781 L 256.050781 93.800781 L 256.050781 83.148438 L 183.148438 83.148438 C 183.148438 82.582031 183.167969 81.984375 183.199219 81.351562 C 183.332031 77.949219 181.617188 74.5 178.050781 71 C 174.417969 67.398438 169.800781 65.550781 164.199219 65.449219 C 158.53125 65.316406 153.566406 67.332031 149.300781 71.5 C 145.734375 74.964844 143.601562 78.851562 142.898438 83.148438 L 98.75 83.148438 L 98.75 93.800781 L 145.101562 93.800781 C 146.601562 96.433594 148.851562 99.25 151.851562 102.25 C 152.25 102.75 152.683594 103.25 153.148438 103.75 C 153.550781 104.148438 153.96875 104.53125 154.398438 104.898438 L 99.300781 104.898438 L 99.300781 115.550781 L 144.148438 115.550781 C 140.71875 118.050781 138.21875 120.816406 136.648438 123.851562 C 134.21875 128.582031 132.566406 135.015625 131.699219 143.148438 C 131.066406 145.214844 130.5 147.265625 130 149.300781 L 98.75 149.300781 L 98.75 159.949219 L 128.101562 159.949219 C 127.667969 163.714844 127.5 167.484375 127.601562 171.25 L 99.300781 171.25 L 99.300781 181.898438 L 128.5 181.898438 C 128.800781 183.800781 129.148438 185.683594 129.550781 187.550781 C 129.050781 192.78125 128.398438 198.449219 127.601562 204.550781 C 127.167969 207.917969 126.851562 211.066406 126.648438 214 C 126.550781 214.367188 126.46875 214.714844 126.398438 215.050781 L 98.75 215.050781 L 98.75 225.699219 L 125.648438 225.699219 C 126.050781 229.167969 127.183594 232.25 129.050781 234.949219 C 128.949219 235.617188 128.867188 236.28125 128.800781 236.949219 L 99.300781 236.949219 L 99.300781 247.601562 L 128.050781 247.601562 C 127.984375 250.566406 128.03125 253.5 128.199219 256.398438 C 128.667969 265.632812 129.632812 273.683594 131.101562 280.550781 C 131.132812 280.714844 131.167969 280.882812 131.199219 281.050781 L 98.75 281.050781 L 98.75 291.699219 L 131.5 291.699219 C 131.03125 294.898438 130.066406 298.117188 128.601562 301.351562 C 128.300781 302.015625 128 302.683594 127.699219 303.351562 L 99.300781 303.351562 L 99.300781 314 L 123.550781 314 C 123.316406 315 123.132812 316 123 317 C 122.304688 322.023438 121.769531 327.390625 121.398438 333.101562 L 112.351562 333.101562 C 109.917969 330.265625 106.832031 328.132812 103.101562 326.699219 C 96.96875 324.398438 90.933594 324.667969 85 327.5 C 81.933594 328.765625 79.367188 330.632812 77.300781 333.101562 L 64.25 333.101562 C 61.550781 333.101562 59.300781 333.984375 57.5 335.75 C 55.699219 337.550781 54.800781 339.800781 54.800781 342.5 L 54.800781 370.5 L 18 370.5 L 18 12.851562 L 159.5 12.851562" fill-rule="evenodd"/></g><g><path fill="#adbfc8" d="M 219 375.625 L 263.25 378.699219 L 262.75 383.25 L 219 378.675781 Z M 282.148438 198.75 L 294.199219 27.050781 L 300.148438 27.648438 L 282.148438 198.851562 Z M 18 188.75 L 6.25 356.25 L 0 355.601562 L 18 184.449219 Z M 156.601562 12.851562 L 36.949219 4.5 L 37.398438 0 L 159.5 12.851562 L 156.601562 12.851562" fill-rule="evenodd"/></g><g><path fill="#eaebec" d="M 166.351562 291.699219 L 159.699219 291.699219 C 160.832031 288.132812 162.03125 284.632812 163.300781 281.199219 C 163.332031 281.167969 163.351562 281.117188 163.351562 281.050781 L 166.101562 281.050781 C 166.167969 281.351562 166.234375 281.648438 166.300781 281.949219 C 167 285.25 167.015625 288.5 166.351562 291.699219 Z M 197.199219 247.601562 L 197.199219 240.851562 C 197.265625 239.484375 197.316406 238.183594 197.351562 236.949219 L 225.300781 236.949219 L 225.300781 247.601562 Z M 196.851562 314 C 196.914062 309.332031 196.933594 305.78125 196.898438 303.351562 L 207.175781 303.351562 L 199.976562 314 Z M 215.699219 291.699219 L 197.199219 291.699219 L 197.199219 281.050781 L 256.050781 281.050781 L 256.050781 291.699219 L 248.074219 291.699219 C 247.195312 290.882812 246.238281 290.117188 245.199219 289.398438 C 239.933594 285.667969 234.085938 284.433594 227.648438 285.699219 C 222.945312 286.558594 218.964844 288.558594 215.699219 291.699219 Z M 238.699219 225.699219 L 229.949219 225.699219 C 230.015625 225.667969 230.101562 225.617188 230.199219 225.550781 C 231.132812 224.949219 231.851562 224.199219 232.351562 223.300781 Z M 223.25 225.699219 L 212.75 225.699219 C 212.949219 225.398438 213.132812 225.082031 213.300781 224.75 C 213.5 224.351562 213.699219 223.898438 213.898438 223.398438 Z M 256.050781 55.199219 L 98.75 55.199219 L 98.75 44.550781 L 256.050781 44.550781 Z M 207.949219 181.898438 C 207.351562 178.367188 206.75 174.816406 206.148438 171.25 L 225.300781 171.25 L 225.300781 181.898438 Z M 181.75 93.800781 C 181.816406 93.164062 181.851562 92.53125 181.851562 91.898438 C 181.851562 90.699219 181.75 89.566406 181.550781 88.5 C 181.75 88.898438 182 88.714844 182.300781 87.949219 C 182.699219 87.050781 182.984375 85.449219 183.148438 83.148438 L 256.050781 83.148438 L 256.050781 93.800781 Z M 175.699219 104.898438 L 225.300781 104.898438 L 225.300781 115.550781 L 197 115.550781 C 194.800781 110.484375 192.265625 107.515625 189.398438 106.648438 C 187.066406 105.917969 185.015625 105.867188 183.25 106.5 C 180.78125 105.699219 178.148438 105.25 175.351562 105.148438 C 175.449219 105.082031 175.566406 105 175.699219 104.898438 Z M 142.898438 83.148438 C 142.765625 84.015625 142.683594 84.898438 142.648438 85.800781 C 142.582031 88.265625 143.398438 90.933594 145.101562 93.800781 L 98.75 93.800781 L 98.75 83.148438 Z M 154.398438 104.898438 C 155.46875 105.765625 156.601562 106.5 157.800781 107.101562 L 157.800781 108.550781 C 152.234375 110.582031 147.683594 112.917969 144.148438 115.550781 L 99.300781 115.550781 L 99.300781 104.898438 Z M 204.25 159.949219 C 204.050781 158.648438 203.835938 157.351562 203.601562 156.050781 C 203.199219 153.816406 202.835938 151.566406 202.5 149.300781 L 256.050781 149.300781 L 256.050781 159.949219 Z M 128.101562 159.949219 L 98.75 159.949219 L 98.75 149.300781 L 130 149.300781 C 129.132812 152.867188 128.5 156.417969 128.101562 159.949219 Z M 127.601562 171.25 C 127.667969 174.816406 127.96875 178.367188 128.5 181.898438 L 99.300781 181.898438 L 99.300781 171.25 Z M 126.398438 215.050781 C 125.53125 218.949219 125.28125 222.5 125.648438 225.699219 L 98.75 225.699219 L 98.75 215.050781 Z M 128.800781 236.949219 C 128.398438 240.550781 128.148438 244.101562 128.050781 247.601562 L 99.300781 247.601562 L 99.300781 236.949219 Z M 131.199219 281.050781 C 131.933594 284.582031 132.03125 288.132812 131.5 291.699219 L 98.75 291.699219 L 98.75 281.050781 Z M 156.398438 303.351562 L 163.148438 303.351562 C 162.449219 306.882812 162.117188 310.433594 162.148438 314 L 153.851562 314 C 154.316406 312 154.78125 309.964844 155.25 307.898438 C 155.617188 306.367188 156 304.851562 156.398438 303.351562 Z M 123.550781 314 L 99.300781 314 L 99.300781 303.351562 L 127.699219 303.351562 C 127.101562 304.648438 126.484375 305.964844 125.851562 307.300781 C 124.816406 309.5 124.050781 311.734375 123.550781 314" fill-rule="evenodd"/></g><g><path fill="#3b6176" d="M 166.898438 330.699219 L 166.800781 330.851562 C 166.265625 329.75 166.101562 328.867188 166.300781 328.199219 L 166.300781 328.351562 C 166.699219 329.714844 166.898438 330.5 166.898438 330.699219 Z M 316.199219 409.199219 L 316.199219 409.050781 C 316.367188 409.714844 316.183594 410.582031 315.648438 411.648438 L 315.601562 411.5 C 315.632812 411.300781 315.835938 410.53125 316.199219 409.199219 Z M 187.050781 333.101562 L 178.125 333.101562 C 176.242188 324.933594 175.300781 319.699219 175.300781 317.398438 C 175.300781 316.667969 175.398438 315.53125 175.601562 314 C 175.800781 312.398438 176.117188 310.382812 176.550781 307.949219 C 176.816406 306.484375 177.050781 304.949219 177.25 303.351562 C 177.648438 299.78125 177.851562 295.933594 177.851562 291.800781 C 177.851562 291.765625 177.851562 291.734375 177.851562 291.699219 C 177.851562 288.433594 177.765625 284.882812 177.601562 281.050781 C 177.433594 277.714844 177.21875 274.148438 176.949219 270.351562 C 176.183594 260.816406 175.601562 253.632812 175.199219 248.800781 C 175.265625 248.398438 175.332031 248 175.398438 247.601562 C 175.5 246.667969 175.617188 245.78125 175.75 244.949219 C 177.351562 244.582031 178.933594 244.148438 180.5 243.648438 C 186.101562 242.316406 190.585938 240.082031 193.949219 236.949219 C 195.21875 235.75 196.335938 234.417969 197.300781 232.949219 C 197.335938 234.183594 197.351562 235.515625 197.351562 236.949219 C 197.316406 238.183594 197.265625 239.484375 197.199219 240.851562 L 197.199219 295.148438 C 197 295.949219 196.898438 298.382812 196.898438 302.449219 C 196.898438 302.714844 196.898438 303.015625 196.898438 303.351562 C 196.933594 305.78125 196.914062 309.332031 196.851562 314 C 196.820312 315.46875 196.789062 317.050781 196.75 318.75 Z M 322.800781 339.25 C 323.300781 337.917969 323.800781 336.582031 324.300781 335.25 C 324.898438 333.78125 325.5 332.316406 326.101562 330.851562 C 327.664062 327.117188 328.585938 323.582031 328.851562 320.25 C 329.382812 320.117188 329.980469 319.964844 330.648438 319.800781 C 340.183594 353.667969 347.585938 387.617188 352.851562 421.648438 C 353.683594 427.117188 354.46875 432.582031 355.199219 438.050781 C 354.5 438.082031 353.78125 438.132812 353.050781 438.199219 C 352.015625 438.234375 351.101562 437.984375 350.300781 437.449219 C 349.664062 436.984375 349.101562 436.367188 348.601562 435.601562 C 347.601562 433.933594 346.867188 431.464844 346.398438 428.199219 C 345.53125 421.332031 344.449219 415.714844 343.148438 411.351562 C 341.851562 406.882812 340.800781 402.78125 340 399.050781 C 339.132812 395.351562 337.699219 389.816406 335.699219 382.449219 C 333.664062 375.148438 331.351562 366.882812 328.75 357.648438 C 326.980469 351.25 325 345.117188 322.800781 339.25 Z M 298.5 454.351562 C 296.335938 454.25 294.199219 453.898438 292.101562 453.300781 C 290.933594 452.898438 289.75 452.433594 288.550781 451.898438 C 286.949219 434.898438 286.050781 420.25 285.851562 407.949219 C 285.617188 395.582031 285.515625 387.382812 285.550781 383.351562 C 285.550781 379.214844 285.449219 376.765625 285.25 376 L 285.25 321.648438 C 285.117188 318.550781 285.101562 315.75 285.199219 313.25 C 286.632812 314.648438 288.351562 315.917969 290.351562 317.050781 C 294.050781 319.25 298.117188 320.617188 302.550781 321.148438 C 303.78125 321.351562 305.050781 321.5 306.351562 321.601562 C 306.585938 324.566406 306.882812 327.25 307.25 329.648438 C 306.851562 334.515625 306.265625 341.683594 305.5 351.148438 C 304.933594 359.351562 304.648438 366.515625 304.648438 372.648438 C 304.648438 378.582031 305.066406 383.964844 305.898438 388.800781 C 306.730469 393.601562 307.148438 396.78125 307.148438 398.351562 C 307.148438 401.214844 305.617188 408.882812 302.550781 421.351562 C 300.949219 427.648438 299.78125 433.332031 299.050781 438.398438 C 298.25 443.332031 297.851562 447.632812 297.851562 451.300781 C 297.851562 451.398438 298.015625 452.351562 298.351562 454.148438 C 298.414062 454.183594 298.46875 454.25 298.5 454.351562 Z M 331.351562 179.5 C 330.914062 179.667969 330.398438 179.867188 329.800781 180.101562 C 328.46875 180.667969 326.78125 181.464844 324.75 182.5 C 321.316406 184.199219 318.78125 183.75 317.148438 181.148438 C 316.351562 179.882812 315.800781 178.101562 315.5 175.800781 C 316.933594 175.464844 318.183594 174.699219 319.25 173.5 C 320.382812 172.265625 321 170.898438 321.101562 169.398438 C 321.230469 167.964844 320.835938 166.800781 319.898438 165.898438 C 318.898438 165.03125 317.683594 164.734375 316.25 165 C 315.914062 165.03125 315.566406 165.132812 315.199219 165.300781 C 315.164062 159.632812 313.550781 157.050781 310.351562 157.550781 C 308.316406 157.851562 306.835938 157.582031 305.898438 156.75 C 305.265625 156.082031 304.898438 155.132812 304.800781 153.898438 C 303.300781 151.199219 304.683594 148.25 308.949219 145.050781 C 313.21875 141.816406 318.335938 140.601562 324.300781 141.398438 C 330.199219 142.132812 334.867188 144.78125 338.300781 149.351562 C 341.664062 153.816406 343.085938 158.566406 342.550781 163.601562 C 342.015625 168.601562 340.480469 172.351562 337.949219 174.851562 C 335.414062 177.382812 333.414062 178.867188 331.949219 179.300781 C 331.75 179.332031 331.550781 179.398438 331.351562 179.5 Z M 183.148438 83.148438 C 182.984375 85.449219 182.699219 87.050781 182.300781 87.949219 C 182 88.714844 181.75 88.898438 181.550781 88.5 C 181.417969 88.234375 181.300781 87.800781 181.199219 87.199219 C 180.96875 86 180.28125 84.648438 179.148438 83.148438 C 178.75 82.617188 178.28125 82.066406 177.75 81.5 C 175.78125 79.367188 172.183594 79.28125 166.949219 81.25 C 165.484375 81.78125 164.183594 82.414062 163.050781 83.148438 C 160.449219 84.78125 158.566406 86.882812 157.398438 89.449219 C 157.265625 89.316406 157.148438 89.164062 157.050781 89 C 155.917969 87.765625 154.617188 87 153.148438 86.699219 C 151.683594 86.433594 150.46875 86.734375 149.5 87.601562 C 148.566406 88.5 148.148438 89.664062 148.25 91.101562 C 148.351562 92.066406 148.648438 92.964844 149.148438 93.800781 C 149.449219 94.300781 149.800781 94.765625 150.199219 95.199219 C 151.300781 96.433594 152.566406 97.199219 154 97.5 C 154.398438 97.53125 154.800781 97.550781 155.199219 97.550781 C 154.734375 99.816406 154.398438 102.167969 154.199219 104.601562 C 153.367188 103.800781 152.582031 103.015625 151.851562 102.25 C 148.851562 99.25 146.601562 96.433594 145.101562 93.800781 C 143.398438 90.933594 142.582031 88.265625 142.648438 85.800781 C 142.683594 84.898438 142.765625 84.015625 142.898438 83.148438 C 143.601562 78.851562 145.734375 74.964844 149.300781 71.5 C 153.566406 67.332031 158.53125 65.316406 164.199219 65.449219 C 169.800781 65.550781 174.417969 67.398438 178.050781 71 C 181.617188 74.5 183.332031 77.949219 183.199219 81.351562 C 183.167969 81.984375 183.148438 82.582031 183.148438 83.148438 Z M 127.699219 303.351562 C 128 302.683594 128.300781 302.015625 128.601562 301.351562 C 130.066406 298.117188 131.03125 294.898438 131.5 291.699219 C 132.03125 288.132812 131.933594 284.582031 131.199219 281.050781 C 131.167969 280.882812 131.132812 280.714844 131.101562 280.550781 C 129.632812 273.683594 128.667969 265.632812 128.199219 256.398438 C 128.03125 253.5 127.984375 250.566406 128.050781 247.601562 C 128.148438 244.101562 128.398438 240.550781 128.800781 236.949219 C 128.867188 236.28125 128.949219 235.617188 129.050781 234.949219 C 129.515625 235.648438 130.050781 236.316406 130.648438 236.949219 C 132.28125 238.78125 134.332031 240.433594 136.800781 241.898438 C 140.5 244.066406 144.566406 245.433594 149 246 C 156.367188 247.066406 163.648438 247.03125 170.851562 245.898438 C 170.78125 246.464844 170.71875 247.03125 170.648438 247.601562 C 170.582031 248.167969 170.515625 248.75 170.449219 249.351562 C 169.617188 258.515625 167.800781 267.464844 165 276.199219 C 164.46875 277.832031 163.917969 279.449219 163.351562 281.050781 C 163.351562 281.117188 163.332031 281.167969 163.300781 281.199219 C 162.03125 284.632812 160.832031 288.132812 159.699219 291.699219 C 158.5 295.5 157.398438 299.382812 156.398438 303.351562 C 156 304.851562 155.617188 306.367188 155.25 307.898438 C 154.78125 309.964844 154.316406 312 153.851562 314 C 152.25 320.933594 150.78125 327.28125 149.449219 333.050781 C 149.445312 333.066406 149.445312 333.082031 149.449219 333.101562 L 121.398438 333.101562 C 121.769531 327.390625 122.304688 322.023438 123 317 C 123.132812 316 123.316406 315 123.550781 314 C 124.050781 311.734375 124.816406 309.5 125.851562 307.300781 C 126.484375 305.964844 127.101562 304.648438 127.699219 303.351562" fill-rule="evenodd"/></g><g><path fill="#f5833e" d="M 198.550781 230.699219 C 199.183594 229.464844 199.730469 228.148438 200.199219 226.75 C 202.164062 227.25 203.800781 227.601562 205.101562 227.800781 C 207.335938 228.101562 209.164062 227.949219 210.601562 227.351562 L 210.601562 228.898438 C 210.601562 230.101562 210 231.117188 208.800781 231.949219 C 207.664062 232.851562 206.265625 233.332031 204.601562 233.398438 C 202.898438 233.433594 201.398438 233.050781 200.101562 232.25 C 199.367188 231.816406 198.851562 231.300781 198.550781 230.699219 Z M 276.300781 299.898438 C 276.46875 302.898438 278.132812 305.765625 281.300781 308.5 C 281.46875 308.632812 281.617188 308.75 281.75 308.851562 C 281.882812 308.949219 282.015625 309.050781 282.148438 309.148438 C 282.683594 309.484375 283.25 309.699219 283.851562 309.800781 L 282.949219 310.648438 L 282.148438 311.398438 L 277.898438 315.351562 C 277.03125 316.148438 275.882812 316.367188 274.449219 316 C 273.050781 315.667969 271.765625 314.867188 270.601562 313.601562 C 269.433594 312.367188 268.730469 311.03125 268.5 309.601562 C 268.300781 308.167969 268.617188 307.050781 269.449219 306.25 Z M 303.351562 459.5 C 302.015625 462.332031 299.480469 463.566406 295.75 463.199219 C 293.183594 462.898438 291.851562 460.851562 291.75 457.050781 C 291.851562 456.050781 291.949219 455.199219 292.050781 454.5 C 292.050781 454.066406 292.066406 453.667969 292.101562 453.300781 C 294.199219 453.898438 296.335938 454.25 298.5 454.351562 C 300.066406 454.417969 301.617188 454.367188 303.148438 454.199219 C 303.480469 454.265625 303.835938 454.300781 304.199219 454.300781 C 304.101562 455.167969 303.949219 456.601562 303.75 458.601562 C 303.648438 458.898438 303.515625 459.199219 303.351562 459.5 Z M 362.75 439.25 C 362.75 439.28125 362.75 439.332031 362.75 439.398438 C 362.683594 443.300781 361.367188 445.398438 358.800781 445.699219 C 354.730469 446.199219 352.050781 444.683594 350.75 441.148438 C 350.550781 439.582031 350.398438 438.351562 350.300781 437.449219 C 351.101562 437.984375 352.015625 438.234375 353.050781 438.199219 C 353.78125 438.132812 354.5 438.082031 355.199219 438.050781 C 357.699219 437.683594 359.566406 437.132812 360.800781 436.398438 C 361.300781 436.101562 361.765625 435.484375 362.199219 434.550781 C 362.300781 435.582031 362.480469 437.148438 362.75 439.25 Z M 311.648438 182.800781 L 311.648438 182 C 310.085938 181.199219 308.664062 180.148438 307.398438 178.851562 C 304.066406 175.582031 302.398438 171.632812 302.398438 167 C 302.398438 163.066406 303.566406 159.648438 305.898438 156.75 C 306.835938 157.582031 308.316406 157.851562 310.351562 157.550781 C 313.550781 157.050781 315.164062 159.632812 315.199219 165.300781 C 315.566406 165.132812 315.914062 165.03125 316.25 165 C 317.683594 164.734375 318.898438 165.03125 319.898438 165.898438 C 320.835938 166.800781 321.230469 167.964844 321.101562 169.398438 C 321 170.898438 320.382812 172.265625 319.25 173.5 C 318.183594 174.699219 316.933594 175.464844 315.5 175.800781 C 315.800781 178.101562 316.351562 179.882812 317.148438 181.148438 C 318.78125 183.75 321.316406 184.199219 324.75 182.5 C 326.78125 181.464844 328.46875 180.667969 329.800781 180.101562 C 328.164062 181.398438 326.433594 182.351562 324.601562 182.949219 C 324.398438 183.015625 324.21875 183.066406 324.050781 183.101562 L 324.050781 190.550781 C 324.050781 192.25 323.46875 193.683594 322.300781 194.851562 C 321.03125 196.117188 319.566406 196.75 317.898438 196.75 C 316.164062 196.75 314.699219 196.117188 313.5 194.851562 C 312.265625 193.683594 311.648438 192.25 311.648438 190.550781 Z M 171.398438 102.398438 C 173.832031 103.898438 175.78125 103.234375 177.25 100.398438 C 177.683594 99.566406 177.984375 98.699219 178.148438 97.800781 L 169.648438 99.5 C 169.683594 100.199219 169.882812 100.800781 170.25 101.300781 C 170.550781 101.734375 170.933594 102.101562 171.398438 102.398438 Z M 243 214 C 242.867188 214.367188 242.730469 214.714844 242.601562 215.050781 C 240.765625 219.550781 239.71875 222.882812 239.449219 225.050781 C 239.414062 225.28125 239.382812 225.5 239.351562 225.699219 C 239.351562 225.800781 239.351562 225.882812 239.351562 225.949219 L 238.699219 225.699219 L 232.351562 223.300781 C 231.851562 224.199219 231.132812 224.949219 230.199219 225.550781 C 230.101562 225.617188 230.015625 225.667969 229.949219 225.699219 C 228.515625 226.464844 227.015625 226.648438 225.449219 226.25 L 223.25 225.699219 L 213.898438 223.398438 C 214.664062 221.398438 215.449219 218.617188 216.25 215.050781 C 216.480469 213.882812 216.730469 212.648438 217 211.351562 L 225.148438 213.351562 C 225.75 212.015625 226.765625 211.015625 228.199219 210.351562 C 229.730469 209.648438 231.300781 209.601562 232.898438 210.199219 Z M 181.550781 88.5 C 181.75 89.566406 181.851562 90.699219 181.851562 91.898438 C 181.851562 92.53125 181.816406 93.164062 181.75 93.800781 C 181.351562 97.632812 179.75 100.949219 176.949219 103.75 C 176.550781 104.148438 176.132812 104.53125 175.699219 104.898438 C 175.566406 105 175.449219 105.082031 175.351562 105.148438 C 173.917969 106.316406 172.367188 107.199219 170.699219 107.800781 C 170.53125 107.832031 170.382812 107.882812 170.25 107.949219 L 170.25 115.699219 C 170.25 117.367188 169.648438 118.800781 168.449219 120 C 167.21875 121.234375 165.75 121.851562 164.050781 121.851562 C 162.316406 121.851562 160.851562 121.234375 159.648438 120 C 158.417969 118.800781 157.800781 117.367188 157.800781 115.699219 L 157.800781 107.101562 C 156.601562 106.5 155.46875 105.765625 154.398438 104.898438 C 153.96875 104.53125 153.550781 104.148438 153.148438 103.75 C 152.683594 103.25 152.25 102.75 151.851562 102.25 C 152.582031 103.015625 153.367188 103.800781 154.199219 104.601562 C 154.398438 102.167969 154.734375 99.816406 155.199219 97.550781 C 154.800781 97.550781 154.398438 97.53125 154 97.5 C 152.566406 97.199219 151.300781 96.433594 150.199219 95.199219 C 149.800781 94.765625 149.449219 94.300781 149.148438 93.800781 C 148.648438 92.964844 148.351562 92.066406 148.25 91.101562 C 148.148438 89.664062 148.566406 88.5 149.5 87.601562 C 150.46875 86.734375 151.683594 86.433594 153.148438 86.699219 C 154.617188 87 155.917969 87.765625 157.050781 89 C 157.148438 89.164062 157.265625 89.316406 157.398438 89.449219 C 158.566406 86.882812 160.449219 84.78125 163.050781 83.148438 C 164.183594 82.414062 165.484375 81.78125 166.949219 81.25 C 172.183594 79.28125 175.78125 79.367188 177.75 81.5 C 178.28125 82.066406 178.75 82.617188 179.148438 83.148438 C 180.28125 84.648438 180.96875 86 181.199219 87.199219 C 181.300781 87.800781 181.417969 88.234375 181.550781 88.5" fill-rule="evenodd"/></g><g><path fill="#46c4c6" d="M 329.800781 180.101562 C 330.398438 179.867188 330.914062 179.667969 331.351562 179.5 C 334.25 179.800781 336.96875 180.550781 339.5 181.75 C 339.898438 181.949219 340.300781 182.148438 340.699219 182.351562 C 345.398438 184.949219 348.867188 198.28125 351.101562 222.351562 C 352.367188 236.351562 353.199219 254.015625 353.601562 275.351562 C 353.664062 280.316406 353.835938 284.933594 354.101562 289.199219 C 354.835938 291.734375 355.03125 294.332031 354.699219 297 C 354.433594 298.800781 354.085938 300.5 353.648438 302.101562 C 350.980469 310.734375 344.449219 316.316406 334.050781 318.851562 C 332.914062 319.183594 331.78125 319.5 330.648438 319.800781 C 329.980469 319.964844 329.382812 320.117188 328.851562 320.25 C 321.449219 321.882812 313.949219 322.332031 306.351562 321.601562 C 305.050781 321.5 303.78125 321.351562 302.550781 321.148438 C 298.117188 320.617188 294.050781 319.25 290.351562 317.050781 C 288.351562 315.917969 286.632812 314.648438 285.199219 313.25 C 284.335938 312.417969 283.585938 311.550781 282.949219 310.648438 L 283.851562 309.800781 C 287.480469 310.601562 292.164062 307.5 297.898438 300.5 C 305.066406 291.867188 309.96875 282.882812 312.601562 273.550781 C 315.164062 264.148438 316.730469 258.367188 317.300781 256.199219 C 317.730469 254.566406 318.148438 252.851562 318.550781 251.050781 C 318.816406 249.714844 319.066406 248.367188 319.300781 247 C 319.601562 245.566406 319.800781 244.132812 319.898438 242.699219 C 320.066406 240.765625 320.117188 238.832031 320.050781 236.898438 C 319.816406 230.765625 318.132812 225.082031 315 219.851562 C 306.433594 205.417969 297.867188 205.433594 289.300781 219.898438 C 288.699219 221.300781 288.25 222.667969 287.949219 224 C 287.78125 224.800781 287.683594 225.566406 287.648438 226.300781 C 287.585938 226.464844 287.550781 226.617188 287.550781 226.75 C 287.550781 227.117188 287.550781 227.464844 287.550781 227.800781 C 287.515625 228.433594 287.550781 229.03125 287.648438 229.601562 C 287.585938 229.800781 287.585938 229.964844 287.648438 230.101562 C 287.882812 232.234375 288.050781 234.351562 288.148438 236.449219 C 289.382812 253.417969 287.382812 269.398438 282.148438 284.398438 C 281.480469 286.332031 280.75 288.25 279.949219 290.148438 C 280.015625 289.816406 280.101562 289.5 280.199219 289.199219 C 280.398438 286.265625 280.71875 283.117188 281.148438 279.75 C 281.515625 276.949219 281.851562 274.25 282.148438 271.648438 C 283.382812 261.082031 284.148438 252.132812 284.449219 244.800781 C 284.480469 243.5 284.5 242.234375 284.5 241 C 284.601562 235.832031 284.699219 231.082031 284.800781 226.75 C 284.800781 226.648438 284.835938 225.984375 284.898438 224.75 C 284.933594 224.015625 285.03125 222.566406 285.199219 220.398438 C 285.300781 218.867188 285.449219 216.964844 285.648438 214.699219 C 286.085938 209.234375 287.96875 203.515625 291.300781 197.550781 C 294.46875 191.75 301.25 186.832031 311.648438 182.800781 L 311.648438 184.949219 C 309.050781 185.949219 306.835938 187.316406 305 189.050781 C 302.230469 191.75 301.132812 194.433594 301.699219 197.101562 C 302.367188 199.800781 304.53125 201.734375 308.199219 202.898438 C 311.835938 204.101562 315.898438 204.183594 320.398438 203.148438 C 324.933594 202.050781 328.585938 200.183594 331.351562 197.550781 C 334.085938 194.917969 335.132812 192.265625 334.5 189.601562 C 333.898438 186.898438 331.78125 184.933594 328.148438 183.699219 C 327.015625 183.332031 325.835938 183.082031 324.601562 182.949219 C 326.433594 182.351562 328.164062 181.398438 329.800781 180.101562 Z M 183.25 106.5 C 184.351562 106.867188 185.449219 107.300781 186.550781 107.800781 C 188.515625 108.699219 190.265625 111.28125 191.800781 115.550781 C 194.300781 122.417969 196.25 133.667969 197.648438 149.300781 C 197.949219 152.632812 198.230469 156.183594 198.5 159.949219 C 198.730469 163.550781 198.949219 167.316406 199.148438 171.25 C 199.28125 174.648438 199.414062 178.199219 199.550781 181.898438 C 199.75 187.667969 199.914062 193.75 200.050781 200.148438 C 200.085938 201.550781 200.132812 202.949219 200.199219 204.351562 C 189.066406 200.714844 180.398438 196.917969 174.199219 192.949219 C 168.53125 189.28125 164.617188 185.601562 162.449219 181.898438 C 161.148438 179.667969 160.484375 177.417969 160.449219 175.148438 C 160.449219 173.851562 160.46875 172.550781 160.5 171.25 C 160.601562 167.449219 160.851562 163.683594 161.25 159.949219 C 161.351562 158.949219 161.46875 157.949219 161.601562 156.949219 C 161.933594 154.28125 161.917969 151.734375 161.550781 149.300781 C 161.050781 146.101562 159.96875 143.082031 158.300781 140.25 C 155.332031 135.183594 151.015625 132.78125 145.351562 133.050781 C 145.25 133.050781 145.148438 133.015625 145.050781 132.949219 C 139.28125 133.214844 135.582031 134.816406 133.949219 137.75 C 133.949219 137.78125 133.898438 137.832031 133.800781 137.898438 C 133.667969 138.03125 133.515625 138.183594 133.351562 138.351562 C 132.75 139.917969 132.199219 141.515625 131.699219 143.148438 C 132.566406 135.015625 134.21875 128.582031 136.648438 123.851562 C 138.21875 120.816406 140.71875 118.050781 144.148438 115.550781 C 147.683594 112.917969 152.234375 110.582031 157.800781 108.550781 L 157.800781 109.800781 C 155.199219 110.832031 153.015625 112.199219 151.25 113.898438 C 150.683594 114.433594 150.183594 114.984375 149.75 115.550781 C 148.082031 117.683594 147.484375 119.816406 147.949219 121.949219 C 148.617188 124.617188 150.78125 126.550781 154.449219 127.75 C 158.082031 128.949219 162.148438 129.015625 166.648438 127.949219 C 171.183594 126.882812 174.832031 125.03125 177.601562 122.398438 C 179.933594 120.132812 181.050781 117.851562 180.949219 115.550781 C 180.917969 115.183594 180.851562 114.800781 180.75 114.398438 C 180.148438 111.734375 178.03125 109.78125 174.398438 108.550781 C 173.199219 108.183594 171.96875 107.933594 170.699219 107.800781 C 172.367188 107.199219 173.917969 106.316406 175.351562 105.148438 C 178.148438 105.25 180.78125 105.699219 183.25 106.5 Z M 125.648438 225.699219 C 125.28125 222.5 125.53125 218.949219 126.398438 215.050781 C 126.46875 214.714844 126.550781 214.367188 126.648438 214 C 126.851562 211.066406 127.167969 207.917969 127.601562 204.550781 C 128.398438 198.449219 129.050781 192.78125 129.550781 187.550781 C 130.25 190.683594 131.117188 193.816406 132.148438 196.949219 C 133.582031 201.28125 136.667969 204.832031 141.398438 207.601562 C 143.898438 209.03125 146.832031 210.300781 150.199219 211.398438 C 154.132812 212.566406 158.183594 213.78125 162.351562 215.050781 C 168.617188 216.984375 175.148438 219.050781 181.949219 221.25 C 187.617188 223.117188 192.414062 224.601562 196.351562 225.699219 C 197.75 226.101562 199.03125 226.449219 200.199219 226.75 C 199.730469 228.148438 199.183594 229.464844 198.550781 230.699219 C 198.148438 231.433594 197.730469 232.183594 197.300781 232.949219 C 196.335938 234.417969 195.21875 235.75 193.949219 236.949219 C 190.585938 240.082031 186.101562 242.316406 180.5 243.648438 C 178.933594 244.148438 177.351562 244.582031 175.75 244.949219 C 174.117188 245.351562 172.484375 245.667969 170.851562 245.898438 C 163.648438 247.03125 156.367188 247.066406 149 246 C 144.566406 245.433594 140.5 244.066406 136.800781 241.898438 C 134.332031 240.433594 132.28125 238.78125 130.648438 236.949219 C 130.050781 236.316406 129.515625 235.648438 129.050781 234.949219 C 127.183594 232.25 126.050781 229.167969 125.648438 225.699219" fill-rule="evenodd"/></g><g><path fill="#2f9597" d="M 283.851562 309.800781 C 283.25 309.699219 282.683594 309.484375 282.148438 309.148438 C 282.015625 309.050781 281.882812 308.949219 281.75 308.851562 C 281.617188 308.75 281.46875 308.632812 281.300781 308.5 C 278.132812 305.765625 276.46875 302.898438 276.300781 299.898438 C 276.265625 299.265625 276.300781 298.632812 276.398438 298 C 277.699219 295.398438 278.882812 292.78125 279.949219 290.148438 C 280.75 288.25 281.480469 286.332031 282.148438 284.398438 C 287.382812 269.398438 289.382812 253.417969 288.148438 236.449219 C 288.050781 234.351562 287.882812 232.234375 287.648438 230.101562 C 287.585938 229.964844 287.585938 229.800781 287.648438 229.601562 C 287.550781 229.03125 287.515625 228.433594 287.550781 227.800781 C 287.550781 227.464844 287.550781 227.117188 287.550781 226.75 C 287.550781 226.617188 287.585938 226.464844 287.648438 226.300781 C 287.683594 225.566406 287.78125 224.800781 287.949219 224 C 288.25 222.667969 288.699219 221.300781 289.300781 219.898438 C 297.867188 205.433594 306.433594 205.417969 315 219.851562 C 318.132812 225.082031 319.816406 230.765625 320.050781 236.898438 C 320.117188 238.832031 320.066406 240.765625 319.898438 242.699219 C 319.800781 244.132812 319.601562 245.566406 319.300781 247 C 319.066406 248.367188 318.816406 249.714844 318.550781 251.050781 C 318.148438 252.851562 317.730469 254.566406 317.300781 256.199219 C 316.730469 258.367188 315.164062 264.148438 312.601562 273.550781 C 309.96875 282.882812 305.066406 291.867188 297.898438 300.5 C 292.164062 307.5 287.480469 310.601562 283.851562 309.800781 Z M 351.101562 222.351562 C 348.867188 198.28125 345.398438 184.949219 340.699219 182.351562 C 340.300781 182.148438 339.898438 181.949219 339.5 181.75 C 340.398438 181.75 341.351562 181.800781 342.351562 181.898438 C 349.851562 182.734375 353.414062 191.25 353.050781 207.449219 C 352.914062 213.015625 352.265625 217.984375 351.101562 222.351562 Z M 285.199219 220.398438 C 285.03125 222.566406 284.933594 224.015625 284.898438 224.75 C 284.835938 225.984375 284.800781 226.648438 284.800781 226.75 C 284.699219 231.082031 284.601562 235.832031 284.5 241 C 284.5 242.234375 284.480469 243.5 284.449219 244.800781 C 283.71875 244.566406 282.949219 244.332031 282.148438 244.101562 C 277.75 242.800781 272.800781 241.367188 267.300781 239.800781 C 255.933594 236.53125 248.316406 234 244.449219 232.199219 C 241.015625 230.601562 239.316406 228.515625 239.351562 225.949219 C 239.351562 225.882812 239.351562 225.800781 239.351562 225.699219 C 239.382812 225.5 239.414062 225.28125 239.449219 225.050781 C 239.71875 222.882812 240.765625 219.550781 242.601562 215.050781 C 242.730469 214.714844 242.867188 214.367188 243 214 C 243.5 212.765625 244.050781 211.433594 244.648438 210 C 259.75 215.398438 272.25 218.75 282.148438 220.050781 C 283.183594 220.183594 284.199219 220.300781 285.199219 220.398438 Z M 204.25 159.949219 C 204.882812 163.714844 205.515625 167.484375 206.148438 171.25 C 206.75 174.816406 207.351562 178.367188 207.949219 181.898438 C 209.351562 190.566406 210.765625 199.234375 212.199219 207.898438 C 213.867188 208.367188 215.601562 208.816406 217.398438 209.25 C 217.230469 209.984375 217.101562 210.683594 217 211.351562 C 216.730469 212.648438 216.480469 213.882812 216.25 215.050781 C 215.449219 218.617188 214.664062 221.398438 213.898438 223.398438 C 213.699219 223.898438 213.5 224.351562 213.300781 224.75 C 213.132812 225.082031 212.949219 225.398438 212.75 225.699219 C 212.183594 226.433594 211.46875 226.984375 210.601562 227.351562 C 209.164062 227.949219 207.335938 228.101562 205.101562 227.800781 C 203.800781 227.601562 202.164062 227.25 200.199219 226.75 C 199.03125 226.449219 197.75 226.101562 196.351562 225.699219 C 192.414062 224.601562 187.617188 223.117188 181.949219 221.25 C 175.148438 219.050781 168.617188 216.984375 162.351562 215.050781 C 158.183594 213.78125 154.132812 212.566406 150.199219 211.398438 C 146.832031 210.300781 143.898438 209.03125 141.398438 207.601562 C 136.667969 204.832031 133.582031 201.28125 132.148438 196.949219 C 131.117188 193.816406 130.25 190.683594 129.550781 187.550781 C 129.148438 185.683594 128.800781 183.800781 128.5 181.898438 C 127.96875 178.367188 127.667969 174.816406 127.601562 171.25 C 127.5 167.484375 127.667969 163.714844 128.101562 159.949219 C 128.5 156.417969 129.132812 152.867188 130 149.300781 C 130.5 147.265625 131.066406 145.214844 131.699219 143.148438 C 132.199219 141.515625 132.75 139.917969 133.351562 138.351562 C 133.515625 138.183594 133.667969 138.03125 133.800781 137.898438 C 133.898438 137.832031 133.949219 137.78125 133.949219 137.75 C 135.582031 134.816406 139.28125 133.214844 145.050781 132.949219 C 145.148438 133.015625 145.25 133.050781 145.351562 133.050781 C 151.015625 132.78125 155.332031 135.183594 158.300781 140.25 C 159.96875 143.082031 161.050781 146.101562 161.550781 149.300781 C 161.917969 151.734375 161.933594 154.28125 161.601562 156.949219 C 161.46875 157.949219 161.351562 158.949219 161.25 159.949219 C 160.851562 163.683594 160.601562 167.449219 160.5 171.25 C 160.46875 172.550781 160.449219 173.851562 160.449219 175.148438 C 160.484375 177.417969 161.148438 179.667969 162.449219 181.898438 C 164.617188 185.601562 168.53125 189.28125 174.199219 192.949219 C 180.398438 196.917969 189.066406 200.714844 200.199219 204.351562 C 200.132812 202.949219 200.085938 201.550781 200.050781 200.148438 C 199.914062 193.75 199.75 187.667969 199.550781 181.898438 C 199.414062 178.199219 199.28125 174.648438 199.148438 171.25 C 198.949219 167.316406 198.730469 163.550781 198.5 159.949219 C 198.230469 156.183594 197.949219 152.632812 197.648438 149.300781 C 196.25 133.667969 194.300781 122.417969 191.800781 115.550781 C 190.265625 111.28125 188.515625 108.699219 186.550781 107.800781 C 185.449219 107.300781 184.351562 106.867188 183.25 106.5 C 185.015625 105.867188 187.066406 105.917969 189.398438 106.648438 C 192.265625 107.515625 194.800781 110.484375 197 115.550781 C 197.335938 116.316406 197.664062 117.148438 198 118.050781 C 199.46875 124.015625 200.46875 130.101562 201 136.300781 C 201.367188 140.632812 201.867188 144.964844 202.5 149.300781 C 202.835938 151.566406 203.199219 153.816406 203.601562 156.050781 C 203.835938 157.351562 204.050781 158.648438 204.25 159.949219" fill-rule="evenodd"/></g><g><path fill="#c7d4da" d="M 263.25 378.699219 L 219 375.625 L 219 370.5 L 270.101562 370.5 L 269.5 379.148438 Z M 6.25 356.25 L 18 188.75 L 18 361.550781 L 5.949219 360.699219 Z M 30.351562 12.851562 L 30.949219 4.050781 L 36.949219 4.5 L 156.601562 12.851562 Z M 294.199219 27.050781 L 282.148438 198.75 L 282.148438 21.648438 L 294.5 22.5 L 294.199219 27.050781" fill-rule="evenodd"/></g><g><path fill="#f5772d" d="M 82.898438 219.949219 L 77.949219 227.25 L 67.199219 242.949219 C 66.332031 244.183594 65.167969 245 63.699219 245.398438 C 62.265625 245.800781 60.867188 245.683594 59.5 245.050781 C 58.167969 244.417969 57.167969 243.417969 56.5 242.050781 L 45.199219 217.300781 L 45.050781 217 C 44.382812 215.464844 44.351562 213.898438 44.949219 212.300781 C 45.214844 211.566406 45.582031 210.933594 46.050781 210.398438 C 46.582031 209.765625 47.265625 209.265625 48.101562 208.898438 C 49.632812 208.167969 51.199219 208.101562 52.800781 208.699219 C 53.765625 209.066406 54.582031 209.632812 55.25 210.398438 C 55.648438 210.832031 55.984375 211.332031 56.25 211.898438 L 57.800781 215.351562 L 63.148438 227.101562 L 71.199219 215.351562 L 74.550781 210.398438 L 81.199219 200.601562 C 82.167969 199.199219 83.484375 198.351562 85.148438 198.050781 C 86.816406 197.714844 88.332031 198.03125 89.699219 199 C 91.101562 199.964844 91.96875 201.28125 92.300781 202.949219 C 92.601562 204.617188 92.28125 206.132812 91.351562 207.5 Z M 77.949219 161.550781 L 59.5 175.75 C 58.332031 176.648438 57 177.066406 55.5 177 C 54 176.898438 52.683594 176.351562 51.550781 175.351562 C 50.449219 174.316406 49.832031 173.050781 49.699219 171.550781 L 47.101562 149.398438 L 46.550781 144.449219 L 46.5 144.25 C 46.332031 142.515625 46.765625 141 47.800781 139.699219 C 48.867188 138.367188 50.234375 137.617188 51.898438 137.449219 C 53.601562 137.25 55.117188 137.683594 56.449219 138.75 C 57.78125 139.78125 58.53125 141.148438 58.699219 142.851562 L 58.898438 144.449219 L 59.449219 149.398438 L 60.601562 159.398438 L 73.601562 149.398438 L 80 144.449219 L 85.949219 139.800781 C 87.28125 138.765625 88.800781 138.351562 90.5 138.550781 C 92.167969 138.75 93.515625 139.515625 94.550781 140.851562 C 95.617188 142.183594 96.03125 143.699219 95.800781 145.398438 C 95.601562 147.101562 94.832031 148.464844 93.5 149.5 L 82.898438 157.699219 Z M 82.898438 87.699219 L 77.949219 95 L 67.199219 110.699219 C 66.332031 111.933594 65.167969 112.75 63.699219 113.148438 C 62.265625 113.550781 60.867188 113.433594 59.5 112.800781 C 58.167969 112.167969 57.167969 111.167969 56.5 109.800781 L 45.199219 85.050781 L 45.050781 84.75 C 44.382812 83.214844 44.351562 81.648438 44.949219 80.050781 C 45.214844 79.28125 45.601562 78.632812 46.101562 78.101562 C 46.632812 77.464844 47.300781 76.984375 48.101562 76.648438 C 49.632812 75.914062 51.199219 75.851562 52.800781 76.449219 C 53.765625 76.816406 54.566406 77.367188 55.199219 78.101562 C 55.601562 78.53125 55.949219 79.050781 56.25 79.648438 L 57.800781 83.050781 L 63.148438 94.851562 L 71.199219 83.050781 L 74.601562 78.101562 L 81.199219 68.351562 C 82.167969 66.949219 83.484375 66.101562 85.148438 65.800781 C 86.816406 65.464844 88.332031 65.78125 89.699219 66.75 C 91.101562 67.714844 91.96875 69.03125 92.300781 70.699219 C 92.601562 72.367188 92.28125 73.882812 91.351562 75.25 Z M 122.351562 352.148438 L 142.949219 397.550781 L 173.949219 352.148438 L 187.050781 333.101562 L 196.75 318.75 L 199.976562 314 L 207.175781 303.351562 L 212.449219 295.550781 C 213.4375 294.117188 214.523438 292.835938 215.699219 291.699219 C 218.964844 288.558594 222.945312 286.558594 227.648438 285.699219 C 234.085938 284.433594 239.933594 285.667969 245.199219 289.398438 C 246.238281 290.117188 247.195312 290.882812 248.074219 291.699219 C 251.773438 295.109375 254.148438 299.410156 255.199219 304.601562 C 256.335938 311 255.117188 316.832031 251.550781 322.101562 L 219 370.050781 L 199.949219 398.148438 L 158.550781 458.601562 C 155.21875 463.332031 150.734375 466.464844 145.101562 468 C 139.566406 469.566406 134.167969 469.117188 128.898438 466.648438 C 123.765625 464.214844 119.917969 460.367188 117.351562 455.101562 L 73.851562 359.851562 L 73.300781 358.699219 C 70.734375 352.765625 70.601562 346.734375 72.898438 340.601562 C 73.933594 337.632812 75.398438 335.132812 77.300781 333.101562 C 79.367188 330.632812 81.933594 328.765625 85 327.5 C 90.933594 324.667969 96.96875 324.398438 103.101562 326.699219 C 106.832031 328.132812 109.917969 330.265625 112.351562 333.101562 C 113.882812 334.765625 115.234375 336.75 116.398438 339.050781 L 122.351562 352.148438" fill-rule="evenodd"/></g><g clip-path="url(#b)"><path fill="#6d99a7" d="M 80.398438 276.398438 C 81.101562 276.398438 81.683594 276.632812 82.148438 277.101562 C 82.648438 277.566406 82.898438 278.148438 82.898438 278.851562 L 82.898438 316.550781 C 82.898438 317.25 82.648438 317.832031 82.148438 318.300781 C 81.683594 318.800781 81.101562 319.050781 80.398438 319.050781 L 42.699219 319.050781 C 42 319.050781 41.417969 318.800781 40.949219 318.300781 C 40.484375 317.832031 40.25 317.25 40.25 316.550781 L 40.25 278.851562 C 40.25 278.148438 40.484375 277.566406 40.949219 277.101562 C 41.417969 276.632812 42 276.398438 42.699219 276.398438 Z M 77.949219 314.101562 L 77.949219 281.351562 L 45.199219 281.351562 L 45.199219 314.101562 Z M 57.800781 215.351562 L 56.25 211.898438 C 55.984375 211.332031 55.648438 210.832031 55.25 210.398438 L 74.550781 210.398438 L 71.199219 215.351562 Z M 73.601562 149.398438 L 59.449219 149.398438 L 58.898438 144.449219 L 80 144.449219 Z M 46.050781 210.398438 C 45.582031 210.933594 45.214844 211.566406 44.949219 212.300781 C 44.351562 213.898438 44.382812 215.464844 45.050781 217 L 45.199219 217.300781 L 45.199219 248.101562 L 77.949219 248.101562 L 77.949219 227.25 L 82.898438 219.949219 L 82.898438 250.550781 C 82.898438 251.25 82.648438 251.832031 82.148438 252.300781 C 81.683594 252.800781 81.101562 253.050781 80.398438 253.050781 L 42.699219 253.050781 C 42 253.050781 41.417969 252.800781 40.949219 252.300781 C 40.484375 251.832031 40.25 251.25 40.25 250.550781 L 40.25 212.851562 C 40.25 212.148438 40.484375 211.566406 40.949219 211.101562 C 41.417969 210.632812 42 210.398438 42.699219 210.398438 Z M 45.199219 85.050781 L 45.199219 115.800781 L 77.949219 115.800781 L 77.949219 95 L 82.898438 87.699219 L 82.898438 118.25 C 82.898438 118.949219 82.648438 119.53125 82.148438 120 C 81.683594 120.5 81.101562 120.75 80.398438 120.75 L 42.699219 120.75 C 42 120.75 41.417969 120.5 40.949219 120 C 40.484375 119.53125 40.25 118.949219 40.25 118.25 L 40.25 80.550781 C 40.25 79.851562 40.484375 79.265625 40.949219 78.800781 C 41.417969 78.332031 42 78.101562 42.699219 78.101562 L 46.101562 78.101562 C 45.601562 78.632812 45.214844 79.28125 44.949219 80.050781 C 44.351562 81.648438 44.382812 83.214844 45.050781 84.75 Z M 46.550781 144.449219 L 47.101562 149.398438 L 45.199219 149.398438 L 45.199219 182.148438 L 77.949219 182.148438 L 77.949219 161.550781 L 82.898438 157.699219 L 82.898438 184.601562 C 82.898438 185.300781 82.648438 185.882812 82.148438 186.351562 C 81.683594 186.851562 81.101562 187.101562 80.398438 187.101562 L 42.699219 187.101562 C 42 187.101562 41.417969 186.851562 40.949219 186.351562 C 40.484375 185.882812 40.25 185.300781 40.25 184.601562 L 40.25 146.898438 C 40.25 146.199219 40.484375 145.617188 40.949219 145.148438 C 41.417969 144.683594 42 144.449219 42.699219 144.449219 Z M 74.601562 78.101562 L 71.199219 83.050781 L 57.800781 83.050781 L 56.25 79.648438 C 55.949219 79.050781 55.601562 78.53125 55.199219 78.101562 Z M 173.949219 352.148438 L 122.351562 352.148438 L 116.398438 339.050781 C 115.234375 336.75 113.882812 334.765625 112.351562 333.101562 L 187.050781 333.101562 Z M 219 375.625 L 219 487.648438 C 219 490.351562 218.03125 492.601562 216.101562 494.398438 C 214.300781 496.332031 212.066406 497.300781 209.398438 497.300781 L 64.25 497.300781 C 61.550781 497.300781 59.300781 496.332031 57.5 494.398438 C 55.699219 492.601562 54.800781 490.351562 54.800781 487.648438 L 54.800781 342.5 C 54.800781 339.800781 55.699219 337.550781 57.5 335.75 C 59.300781 333.984375 61.550781 333.101562 64.25 333.101562 L 77.300781 333.101562 C 75.398438 335.132812 73.933594 337.632812 72.898438 340.601562 C 70.601562 346.734375 70.734375 352.765625 73.300781 358.699219 L 73.851562 359.851562 L 73.851562 478.199219 L 199.949219 478.199219 L 199.949219 398.148438 L 219 370.050781 L 219 375.625" fill-rule="evenodd"/></g><g clip-path="url(#c)"><path fill="#184058" d="M 166.898438 330.699219 C 166.898438 330.5 166.699219 329.714844 166.300781 328.351562 L 166.300781 328.199219 C 166.101562 328.867188 166.265625 329.75 166.800781 330.851562 Z M 170.851562 245.898438 C 172.484375 245.667969 174.117188 245.351562 175.75 244.949219 C 175.617188 245.78125 175.5 246.667969 175.398438 247.601562 C 175.332031 248 175.265625 248.398438 175.199219 248.800781 C 175.601562 253.632812 176.183594 260.816406 176.949219 270.351562 C 177.21875 274.148438 177.433594 277.714844 177.601562 281.050781 C 177.765625 284.882812 177.851562 288.433594 177.851562 291.699219 C 177.851562 291.734375 177.851562 291.765625 177.851562 291.800781 C 177.851562 295.933594 177.648438 299.78125 177.25 303.351562 C 177.050781 304.949219 176.816406 306.484375 176.550781 307.949219 C 176.117188 310.382812 175.800781 312.398438 175.601562 314 C 175.398438 315.53125 175.300781 316.667969 175.300781 317.398438 C 175.300781 319.699219 176.242188 324.933594 178.125 333.101562 L 165.25 333.101562 C 164.789062 331.148438 164.324219 329.199219 163.851562 327.25 C 162.75 322.816406 162.183594 318.398438 162.148438 314 C 162.117188 310.433594 162.449219 306.882812 163.148438 303.351562 C 163.648438 300.582031 164.398438 297.816406 165.398438 295.050781 C 165.800781 293.949219 166.117188 292.832031 166.351562 291.699219 C 167.015625 288.5 167 285.25 166.300781 281.949219 C 166.234375 281.648438 166.167969 281.351562 166.101562 281.050781 C 165.765625 279.417969 165.398438 277.800781 165 276.199219 C 167.800781 267.464844 169.617188 258.515625 170.449219 249.351562 C 170.515625 248.75 170.582031 248.167969 170.648438 247.601562 C 170.71875 247.03125 170.78125 246.464844 170.851562 245.898438 Z M 316.199219 409.199219 C 315.835938 410.53125 315.632812 411.300781 315.601562 411.5 L 315.648438 411.648438 C 316.183594 410.582031 316.367188 409.714844 316.199219 409.050781 Z M 292.050781 454.5 C 291.949219 455.199219 291.851562 456.050781 291.75 457.050781 C 291.851562 460.851562 293.183594 462.898438 295.75 463.199219 C 299.480469 463.566406 302.015625 462.332031 303.351562 459.5 C 304.851562 460.832031 305.898438 462.550781 306.5 464.648438 C 307.335938 467.617188 306.835938 470.367188 305 472.898438 C 303.46875 475.101562 301.351562 475.949219 298.648438 475.449219 C 293.449219 474.449219 288.480469 472.648438 283.75 470.050781 C 281.617188 468.882812 279.480469 467.699219 277.351562 466.5 C 275.015625 465.167969 273.085938 463.5 271.550781 461.5 C 271.25 461.101562 271.050781 460.683594 270.949219 460.25 C 270.351562 456.648438 271.800781 453.933594 275.300781 452.101562 C 277.265625 452.066406 279.265625 452.117188 281.300781 452.25 C 284.96875 452.714844 288.550781 453.464844 292.050781 454.5 Z M 322.800781 339.25 C 319.96875 346.949219 317.765625 354.816406 316.199219 362.851562 C 315.300781 367.28125 315.585938 371.667969 317.050781 376 C 320.851562 386.5 321.382812 397.199219 318.648438 408.101562 C 315.914062 419.234375 313.480469 430.351562 311.351562 441.449219 C 310.585938 445.28125 309.265625 448.917969 307.398438 452.351562 C 306.730469 453.648438 305.664062 454.300781 304.199219 454.300781 C 303.835938 454.300781 303.480469 454.265625 303.148438 454.199219 C 301.617188 454.367188 300.066406 454.417969 298.5 454.351562 C 298.46875 454.25 298.414062 454.183594 298.351562 454.148438 C 298.015625 452.351562 297.851562 451.398438 297.851562 451.300781 C 297.851562 447.632812 298.25 443.332031 299.050781 438.398438 C 299.78125 433.332031 300.949219 427.648438 302.550781 421.351562 C 305.617188 408.882812 307.148438 401.214844 307.148438 398.351562 C 307.148438 396.78125 306.730469 393.601562 305.898438 388.800781 C 305.066406 383.964844 304.648438 378.582031 304.648438 372.648438 C 304.648438 366.515625 304.933594 359.351562 305.5 351.148438 C 306.265625 341.683594 306.851562 334.515625 307.25 329.648438 C 306.882812 327.25 306.585938 324.566406 306.351562 321.601562 C 313.949219 322.332031 321.449219 321.882812 328.851562 320.25 C 328.585938 323.582031 327.664062 327.117188 326.101562 330.851562 C 325.5 332.316406 324.898438 333.78125 324.300781 335.25 C 323.800781 336.582031 323.300781 337.917969 322.800781 339.25 Z M 350.300781 437.449219 C 350.398438 438.351562 350.550781 439.582031 350.75 441.148438 C 352.050781 444.683594 354.730469 446.199219 358.800781 445.699219 C 361.367188 445.398438 362.683594 443.300781 362.75 439.398438 C 362.75 439.332031 362.75 439.28125 362.75 439.25 C 364.183594 440.515625 365.21875 442.464844 365.851562 445.101562 C 366.914062 449.332031 366.25 452.5 363.851562 454.601562 C 363.515625 454.867188 363.21875 455.132812 362.949219 455.398438 C 362.914062 455.332031 362.898438 455.332031 362.898438 455.398438 C 358.066406 455.832031 352.617188 455.417969 346.550781 454.148438 C 340.449219 452.75 336.230469 451.03125 333.898438 449 C 332.066406 447.367188 330.351562 445.617188 328.75 443.75 C 327.085938 441.316406 326.050781 438.714844 325.648438 435.949219 C 325.480469 434.851562 325.835938 433.898438 326.699219 433.101562 C 328.566406 431.332031 330.765625 430.898438 333.300781 431.800781 C 338.335938 433.566406 343.433594 434.832031 348.601562 435.601562 C 349.101562 436.367188 349.664062 436.984375 350.300781 437.449219 Z M 355.199219 438.050781 C 354.46875 432.582031 353.683594 427.117188 352.851562 421.648438 C 347.585938 387.617188 340.183594 353.667969 330.648438 319.800781 C 331.78125 319.5 332.914062 319.183594 334.050781 318.851562 C 344.449219 316.316406 350.980469 310.734375 353.648438 302.101562 C 353.648438 303.03125 353.648438 303.964844 353.648438 304.898438 C 353.515625 314.132812 352.851562 322.25 351.648438 329.25 C 350.515625 336.148438 351.683594 343.015625 355.148438 349.851562 C 356.148438 351.882812 357.164062 353.832031 358.199219 355.699219 C 359.800781 358.734375 360.867188 361.917969 361.398438 365.25 C 363 373.882812 364.148438 383.550781 364.851562 394.25 C 365.617188 404.949219 365.566406 414.398438 364.699219 422.601562 C 364.03125 428.332031 363.199219 432.316406 362.199219 434.550781 C 361.765625 435.484375 361.300781 436.101562 360.800781 436.398438 C 359.566406 437.132812 357.699219 437.683594 355.199219 438.050781" fill-rule="evenodd"/></g></g></svg>